<svg xmlns="http://www.w3.org/2000/svg" width="570" height="460" viewBox="0 0 570 460"><g fill="none" fill-rule="evenodd"><path fill="#FFF" d="M0 0h570v460H0z"/><path fill="#7D8298" d="M242.782 254.613c.382-.745.624-1.602.624-2.387 0-1.582-.956-2.308-2.144-1.623l-21.453 12.403c-.594.343-1.127.968-1.52 1.714-.382.745-.623 1.591-.623 2.387 0 1.573.955 2.298 2.143 1.613l21.453-12.404c.594-.342 1.128-.967 1.52-1.703zm36.628-34.711v10.952c0 6.177-4.106 13.723-9.44 17.28-26.252 17.482-52.616 32.728-78.87 45.594-2.596 1.27-4.9 1.26-6.59.202-1.771-1.109-2.859-3.386-2.859-6.56v-10.953l97.759-56.515z"/><path fill="#FFF" d="M279.41 60.782v159.12l-29.614 17.119v-37.453l16.2-21.17c2.375-3.102 3.643-7.023 3.23-9.995-2.606-18.761-18.606-32.515-31.566-27.577 4.458-5.422 7.466-12.646 7.466-18.944 0-9.23-6.46-12.967-14.439-8.353-7.98 4.616-14.45 15.83-14.45 25.05 0 6.297 3.009 10.035 7.466 10.307-12.95 10.056-28.95 42.299-31.556 64.073-.413 3.457.855 5.915 3.23 6.267l16.19 2.44v37.451l-29.915 17.3v-159.12c0-.775.06-1.571.19-2.377 17.017-10.882 33.58-21.391 38.219-24.192 1.63-.978 3.079-.675 3.732.675.876 1.824 2.738 3.627 6.743 1.32 4.004-2.317 5.866-6.278 6.742-9.119.653-2.096 2.102-4.08 3.733-4.977 4.638-2.58 21.192-11.215 38.208-20.002.13.666.19 1.381.19 2.157"/><path fill="#FFF" d="M231.542 82.062c0-.644-.455-.9-1.007-.584-.555.319-1.005 1.108-1.005 1.753 0 .635.453.897 1.005.574.554-.322 1.007-1.098 1.007-1.743m44.859-27.93c1.4.848 2.425 2.357 2.817 4.494-17.015 8.786-33.569 17.42-38.207 20-1.63.898-3.08 2.882-3.734 4.978-.874 2.842-2.736 6.8-6.742 9.119-4.004 2.307-5.866.504-6.741-1.32-.655-1.35-2.104-1.652-3.733-.676-4.64 2.802-21.202 13.31-38.218 24.193.865-5.632 4.599-11.789 9.257-14.902 26.254-17.493 52.618-32.727 78.871-45.594 2.345-1.149 4.467-1.27 6.088-.484.121.06.23.124.342.192"/><path fill="#262F53" d="M276.4 54.122v.01a3.3 3.3 0 0 0-.341-.192c-1.62-.786-3.743-.665-6.088.484-26.253 12.867-52.617 28.102-78.87 45.594-4.66 3.113-8.393 9.27-9.258 14.902a14.828 14.828 0 0 0-.192 2.378V287.37c0 3.174 1.088 5.451 2.859 6.56l-.01.01-11.16-6.459c-1.872-1.078-3.019-3.406-3.019-6.66V110.749c0-6.187 4.116-13.724 9.45-17.28 26.253-17.493 52.616-32.728 78.87-45.594 2.515-1.24 4.76-1.26 6.43-.303l11.33 6.55z"/><path fill="#FFF" d="M249.796 199.568v37.453l-38.229 22.096v-37.452l-16.19-2.439c-2.374-.352-3.643-2.811-3.23-6.266 2.607-21.775 18.606-54.018 31.557-64.074 2.072.131 4.447-.494 6.983-1.954 2.536-1.462 4.91-3.588 6.973-6.106 12.96-4.938 28.96 8.816 31.566 27.577.413 2.973-.855 6.893-3.23 9.995l-16.2 21.17z"/><path fill="#7D8298" d="M243.406 252.225c0 .786-.241 1.642-.624 2.388-.392.736-.926 1.36-1.52 1.703l-21.453 12.403c-1.188.686-2.144-.04-2.144-1.612 0-.795.242-1.642.624-2.388.393-.745.926-1.37 1.52-1.712l21.454-12.404c1.187-.685 2.143.04 2.143 1.622"/><path fill="#FFF" d="M245.126 121.883c0 6.297-3.009 13.521-7.466 18.943-2.063 2.518-4.437 4.644-6.973 6.106-2.536 1.46-4.91 2.085-6.984 1.954-4.458-.272-7.466-4.01-7.466-10.307 0-9.22 6.47-20.434 14.45-25.05 7.98-4.614 14.44-.876 14.44 8.354m-14.591-40.405c.55-.316 1.006-.06 1.006.585 0 .644-.453 1.42-1.006 1.743-.554.322-1.007.06-1.007-.575 0-.644.45-1.435 1.007-1.753"/><path stroke="#262F53" stroke-linecap="round" stroke-linejoin="round" stroke-width="2.4" d="M279.41 219.902v10.952c0 6.177-4.106 13.723-9.439 17.28-26.253 17.482-52.618 32.727-78.87 45.594-2.597 1.27-4.9 1.26-6.592.201-1.77-1.107-2.857-3.385-2.857-6.558V117.298c0-.776.064-1.571.19-2.378.89-5.629 4.6-11.789 9.258-14.902 26.253-17.492 52.618-32.727 78.871-45.594 2.345-1.149 4.467-1.27 6.088-.483.121.058.23.123.342.19 1.4.849 2.412 2.361 2.818 4.494.126.667.19 1.381.19 2.157v159.12z"/><path stroke="#262F53" stroke-linecap="round" stroke-linejoin="round" stroke-width="2.4" d="M181.843 114.92c17.016-10.882 33.579-21.391 38.218-24.193 1.63-.977 3.079-.675 3.732.676.876 1.823 2.738 3.627 6.743 1.32 4.004-2.318 5.866-6.278 6.742-9.12.653-2.095 2.102-4.08 3.733-4.977 4.638-2.58 21.192-11.215 38.208-20 0-.01.01-.01.01-.01M181.65 276.42l97.76-56.52m-38.148 36.416L219.81 268.72c-1.188.685-2.143-.04-2.143-1.612 0-.797.241-1.643.624-2.389.392-.745.926-1.37 1.52-1.712l21.452-12.404c1.187-.685 2.144.04 2.144 1.623 0 .785-.242 1.642-.624 2.387-.392.736-.926 1.36-1.52 1.703zm-9.72-174.254c0-.644-.455-.9-1.007-.584-.555.319-1.005 1.108-1.005 1.753 0 .635.453.897 1.005.574.554-.322 1.007-1.098 1.007-1.743z"/><path stroke="#262F53" stroke-linecap="round" stroke-linejoin="round" stroke-width="2.4" d="M276.4 54.122l-11.33-6.55c-1.67-.957-3.914-.937-6.43.303-26.253 12.866-52.616 28.101-78.87 45.593-5.333 3.557-9.449 11.094-9.449 17.28v170.073c0 3.254 1.147 5.582 3.019 6.66l11.32 6.55"/><path fill="#FFF" d="M135.212 118.866c2.741-1.588 4.964-5.448 4.964-8.623 0-3.168-2.223-4.452-4.97-2.865-2.74 1.587-4.965 5.441-4.965 8.616.007 3.175 2.23 4.46 4.971 2.872m21.193-12.268c2.747-1.588 4.964-5.442 4.964-8.61 0-3.174-2.223-4.46-4.964-2.872-2.747 1.588-4.964 5.448-4.964 8.616 0 3.175 2.224 4.453 4.964 2.866m21.2-12.262c2.74-1.588 4.964-5.449 4.964-8.617 0-3.175-2.224-4.46-4.97-2.871-2.742 1.594-4.965 5.447-4.965 8.616 0 3.174 2.223 4.459 4.971 2.872m35.205-31.223v9.14c0 20.387-13.535 44.938-30.779 56.642 3.568 9.545 9.761 15.84 17.607 18.725-14.147 4.084-26.554.983-34.44-8.844l-31.457 18.194c-9.545 5.522-18.17 5.919-24.31 2.099-5.837-3.639-9.43-11.092-9.43-21.598v-9.134c0-21.551 15.1-47.743 33.74-58.512l45.329-26.211c9.135-5.281 17.424-5.873 23.496-2.57 6.321 3.437 10.244 11.091 10.244 22.069"/><path fill="#262F53" d="M182.569 85.72c0 3.168-2.224 7.029-4.964 8.615-2.748 1.588-4.97.304-4.97-2.872 0-3.167 2.222-7.022 4.963-8.616 2.747-1.587 4.971-.302 4.971 2.872M161.37 97.988c0 3.168-2.217 7.022-4.964 8.61-2.741 1.587-4.965.31-4.965-2.866 0-3.168 2.217-7.029 4.965-8.616 2.74-1.587 4.963-.303 4.963 2.872m-21.193 12.255c0 3.175-2.224 7.036-4.963 8.623-2.741 1.587-4.965.303-4.971-2.872 0-3.174 2.223-7.029 4.963-8.616 2.747-1.588 4.971-.303 4.971 2.865"/><path stroke="#262F53" stroke-linecap="round" stroke-linejoin="round" stroke-width="2.4" d="M109.431 159.069C103.594 155.43 100 147.977 100 137.47v-9.135c0-21.55 15.1-47.742 33.741-58.511l45.328-26.211c9.136-5.281 17.425-5.873 23.497-2.57 6.321 3.437 10.244 11.091 10.244 22.069v9.14c0 20.388-13.535 44.938-30.778 56.642 3.566 9.544 9.76 15.84 17.605 18.725-14.146 4.084-26.553.983-34.44-8.845l-31.456 18.195c-9.545 5.522-18.17 5.92-24.31 2.099z"/><path stroke="#262F53" stroke-linecap="round" stroke-linejoin="round" stroke-width="2.4" d="M172.634 91.464c0 3.174 2.223 4.459 4.971 2.872 2.74-1.588 4.964-5.449 4.964-8.616 0-3.176-2.223-4.46-4.971-2.873-2.74 1.595-4.964 5.448-4.964 8.617zm-21.193 12.268c0 3.175 2.224 4.453 4.965 2.865 2.747-1.587 4.963-5.441 4.963-8.609 0-3.175-2.223-4.46-4.963-2.872-2.748 1.587-4.965 5.448-4.965 8.616zm-21.2 12.262c.007 3.175 2.23 4.46 4.971 2.872 2.741-1.587 4.964-5.448 4.964-8.623 0-3.168-2.223-4.453-4.97-2.865-2.741 1.587-4.965 5.441-4.965 8.616z"/><path fill="#AB5CBB" d="M230.535 131.732c-19.57 11.308-35.432 38.823-35.432 61.45 0 22.627 15.862 31.795 35.432 20.477 19.561-11.309 35.423-38.823 35.423-61.44 0-22.627-15.862-31.796-35.423-20.487"/><path stroke="#262F53" stroke-linecap="round" stroke-linejoin="round" stroke-width="2.4" d="M195.103 193.182c0-22.627 15.862-50.142 35.432-61.45 19.561-11.31 35.424-2.14 35.424 20.487 0 22.617-15.863 50.131-35.424 61.44-19.57 11.318-35.432 2.15-35.432-20.477z"/><path stroke="#262F53" stroke-linecap="round" stroke-linejoin="round" stroke-width="2.4" d="M246.53 170.337c-4.095 7.265-9.827 13.63-16.175 17.295-6.176 3.57-11.766 3.93-15.814 1.63m24.969-34.222v8.67m-17.96 1.71v8.67"/><path fill="#FFF" d="M313.517 195.055l14.38 15.12c.39.412.833.757 1.32 1.031.287.164.597.298.914.404 1.733.582 4.852 1.813 6.42 3.626 1.42 1.644 5.201 3.456 6.91 3.679.983.128 1.273-.276.034-1.537l-13.936-14.204-16.042-8.12z"/><path fill="#FFF" d="M343.462 218.915c-1.71-.222-5.491-2.035-6.912-3.68-1.568-1.812-4.685-3.043-6.419-3.624a5.413 5.413 0 0 1-.915-.404s-2.274.168-3.25.228c-4.153.243 5.006 9.117 11.635 7.877 1.924-.357 3.882-.316 5.827-.1l.034-.297z"/><path fill="#FFF" d="M343.495 217.379c1.239 1.26.95 1.664-.033 1.536l-.034.296c.256.027.512.06.767.094 5.963.795 11.891.372 17.853-1.212-.115-7.11.04-13.8.504-20.774l-.578-.04c-2.39-1.031-4.613-2.71-6.013-5.438-.444 4.056-.643 8.422-.683 12.977-4.44 2.898-11.21 4.603-18.606 5.607l6.823 6.954z"/><path fill="#262F53" d="M368.643 133.447c-.842 5.007.343 8.12 3.99 10.465 1.884 1.213 4.428 2.216 7.685 3.174a3.86 3.86 0 0 1 2.624 2.567l.027.094a3.845 3.845 0 0 0 3.115 2.668l.075.014a3.83 3.83 0 0 1 2.557 1.55l2.537 3.51c.007-3.41.087-6.67.255-9.905a9.394 9.394 0 0 0-8.088-9.77c-5.646-.775-9.805-1.94-14.777-4.367m5.04 205.942c-5.141.58-9.993-.574-12.759-2.717-3.54 3.726-6.985 5.748-11.857 7.277-1.002.317-1.305 1.584-.572 2.324l1.387 1.395a5.032 5.032 0 0 0 4.992 1.287l14.758-4.332a5.653 5.653 0 0 0 4.044-5.121l.007-.113z"/><path fill="#FFF" d="M371.94 155.28c-.074 6.306 4.03 7.285 7.14 7.124 0 0 0 1.58-.014 2.356a128.797 128.797 0 0 1-.181 4.386c4.326 3.484 9.804 2.507 12.57-.801-.014-.371-.024-.742-.037-1.105a259.98 259.98 0 0 1-.165-9.75l-2.537-3.511a3.833 3.833 0 0 0-2.557-1.55l-.074-.013a3.846 3.846 0 0 1-3.116-2.669l-.026-.094a3.863 3.863 0 0 0-2.625-2.568c-3.257-.956-5.8-1.96-7.685-3.173-.302 2.44-.632 6.2-.693 11.367"/><path fill="#262F53" d="M387.727 364.218a3.05 3.05 0 0 0 2.429 3.807 4.889 4.889 0 0 0 4.589-1.705c2.55-3.1 4.596-5.667 6.622-8.645a10.574 10.574 0 0 0 1.77-7.002l-.101-.97c-2.651 2.426-8.494 3.499-12.505-.099l-.065 2.478c-.02.62-.08 1.24-.196 1.846-.653 3.432-1.527 6.516-2.543 10.29"/><path fill="#FFF" d="M419.152 213.08c-4.092-33.944-12.68-40.929-27.734-45.84.013.363.023.734.037 1.105-2.766 3.308-8.244 4.285-12.57.801.087-1.529.148-2.944.181-4.386-15.524-.58-21.308 10.795-23.105 27.08 1.4 2.73 3.624 4.407 6.013 5.438l.579.041a247.657 247.657 0 0 0-.505 20.774c.088 5.31.33 10.849.713 16.9 6.184 8.22 23.714 13.893 32.462 12.91 2.537-.284 4.582-.769 6.285-1.388 2.16-7.918 3.6-15.121 4.058-22.19a12.26 12.26 0 0 0-.101-2.479c-.27-1.92-.565-3.86-.895-5.849 5.915 2.392 11.076 1.03 14.657-2.264h.013a20.044 20.044 0 0 1-.088-.653"/><path fill="#AB5CBB" d="M401.508 246.515c-1.702.62-3.748 1.105-6.285 1.387-8.748.984-26.278-4.69-32.462-12.91l.08 1.247s-.888 28.253-.746 44.465c.141 16.212 3.196 41.474-1.985 55.24.242.25.517.494.814.728 2.752 2.16 7.618 3.297 12.759 2.717a22.496 22.496 0 0 0 2.86-.494c1.857-9.09-.02-44.789 1.608-55.96.653-4.495 2.685-12.318 4.434-18.618 5.794 30.22 6.535 50.927 6.609 83.817.417.559.862 1.05 1.337 1.47 4.033 3.572 9.848 2.519 12.504.099a4.886 4.886 0 0 0 1.004-1.24l4.165-87.57a18.034 18.034 0 0 1-2.51-1.57c-2.55-1.92-4.294-4.467-5.518-8.125.471-1.59.915-3.154 1.332-4.683"/><path fill="#FFF" d="M401.508 246.515a221.89 221.89 0 0 1-1.332 4.683c1.224 3.658 2.967 6.206 5.518 8.125a161.04 161.04 0 0 0 2.812-4.847c5.791-10.392 9.267-19.672 11.36-32.785.417-2.614-.263-5.303-.626-7.958h-.014c-3.58 3.295-8.74 4.656-14.656 2.264.33 1.988.626 3.929.895 5.849.115.822.155 1.65.101 2.48-.458 7.068-1.898 14.27-4.058 22.189"/><path fill="#FFF" d="M405.694 259.324c.76.573 1.594 1.092 2.51 1.57l.302-6.417a160.116 160.116 0 0 1-2.812 4.847"/><path stroke="#262F53" stroke-linecap="round" stroke-linejoin="round" stroke-width="3.01" d="M379.066 164.76c-15.525-.58-21.315 10.794-23.105 27.08-.446 4.057-.642 8.423-.683 12.978-4.441 2.898-11.21 4.603-18.606 5.607m-7.766.808c-.982.075-1.965.142-2.94.203-4.152.242 5.006 9.116 11.635 7.877 1.924-.358 3.882-.312 5.827-.102.255.028.512.06.767.094 5.963.796 11.89.372 17.853-1.212m46.459 36.383a160.828 160.828 0 0 1-2.813 4.847m-14.276-92.083c15.053 4.911 23.642 11.896 27.734 45.84.026.216.056.437.088.653.388 2.652 1.043 5.343.626 7.958-2.093 13.113-5.565 22.395-11.36 32.785"/><path stroke="#262F53" stroke-linecap="round" stroke-linejoin="round" stroke-width="3.01" d="M401.017 198.31c1.487 6.441 2.646 12.23 3.553 17.687.33 1.988.626 3.929.895 5.85.115.821.155 1.65.101 2.479-.458 7.068-1.898 14.27-4.058 22.189a221.89 221.89 0 0 1-1.332 4.683m-36.473-66.756a293.498 293.498 0 0 0-1.15 12.877 246.98 246.98 0 0 0-.505 20.774c.086 5.31.323 10.849.714 16.9l.08 1.246s-.888 28.253-.747 44.465c.142 16.212 3.196 41.473-1.985 55.24.242.25.516.494.814.728 2.751 2.161 7.616 3.28 12.759 2.717a23.08 23.08 0 0 0 2.86-.494c1.857-9.09-.02-44.789 1.608-55.96.653-4.495 2.685-12.318 4.434-18.618m20.451 85.386l.1.97a10.575 10.575 0 0 1-1.769 7.002c-2.026 2.978-4.071 5.545-6.622 8.645a4.886 4.886 0 0 1-4.589 1.704 3.049 3.049 0 0 1-2.43-3.806c1.017-3.774 1.89-6.86 2.544-10.29a11.99 11.99 0 0 0 .196-1.846l.065-2.478"/><path stroke="#262F53" stroke-linecap="round" stroke-linejoin="round" stroke-width="3.01" d="M373.683 339.389l-.007.113a5.653 5.653 0 0 1-4.044 5.121l-14.758 4.332a5.032 5.032 0 0 1-4.992-1.287l-1.387-1.395c-.733-.74-.43-2.007.572-2.324 4.872-1.53 8.318-3.551 11.857-7.277m18.788-86.283a511.77 511.77 0 0 1 2.874 13.928c5.777 30.224 6.534 50.927 6.608 83.817.417.559.862 1.05 1.337 1.47 4.033 3.572 9.848 2.519 12.505.1a4.91 4.91 0 0 0 1.002-1.24l4.469-93.988m-6.999-7.961c-1.702.62-3.748 1.105-6.285 1.387-8.748.984-26.278-4.69-32.462-12.91m56.465-21.259c-3.58 3.295-8.74 4.656-14.656 2.265m-42.596-18.72c-2.39-1.03-4.613-2.709-6.013-5.437m23.119-29.437c.006.801.002 1.581-.014 2.356-.03 1.442-.094 2.856-.181 4.387 4.326 3.483 9.804 2.506 12.57-.803-.014-.37-.024-.74-.037-1.104a259.978 259.978 0 0 1-.165-9.75c.007-3.41.087-6.671.256-9.906a9.395 9.395 0 0 0-8.089-9.77c-5.646-.775-9.804-1.94-14.777-4.367-.842 5.006.343 8.119 3.99 10.465 1.885 1.212 4.428 2.217 7.685 3.174a3.86 3.86 0 0 1 2.624 2.567l.027.095a3.844 3.844 0 0 0 3.116 2.667l.074.014a3.833 3.833 0 0 1 2.557 1.55l2.537 3.51"/><path stroke="#262F53" stroke-linecap="round" stroke-linejoin="round" stroke-width="3.01" d="M382.485 161.788s-1.521.52-3.406.615c-3.109.16-7.213-.817-7.14-7.124.061-5.168.391-8.928.694-11.367m26.83 104.813c.215.875.452 1.697.713 2.473 1.23 3.656 2.967 6.205 5.518 8.126.76.572 1.594 1.091 2.51 1.57m-71.654-45.658c-1.566-1.814-4.686-3.044-6.42-3.625a5.284 5.284 0 0 1-.914-.405 5.631 5.631 0 0 1-1.32-1.03l-14.38-15.122 16.043 8.12 13.937 14.205c1.238 1.26.949 1.664-.034 1.536-1.71-.223-5.49-2.036-6.911-3.68z"/><path fill="#FFF" d="M198.08 321.34v14.92l41.32 41.53v-14.16l-26.73-26.4 26.73 4.51v-14.15z"/><path fill="#E9EAED" d="M198.08 321.34l41.32 6.25 5.75-3.33-1.87-7.26-29.88-4.51z"/><path fill="#262F53" d="M212.67 337.23l26.73 26.4 13.84-7.99-.8-3.11-11.71-11.56-1.33.77zm26.73 26.4v14.16l15.32-8.86v-7.58l-1.48-5.71z"/><path fill="#262F53" d="M239.4 327.59v14.15l8.92-5.16-3.17-12.32z"/><path fill="#FFF" d="M240.33 305.55l14.39 55.8v.02l13.26 51.43 14.16 8.2-27.65-107.26z"/><path fill="#E9EAED" d="M240.33 305.55l14.16 8.19 15.31-8.86-14.17-8.18z"/><path fill="#A8ACBA" d="M254.49 313.74L282.14 421l15.31-8.85-1.77-6.86-11.78-1.78v-14.14l6.68-3.87-3.96-15.35-2.72-2.68v-7.89l-14.1-54.7z"/><path fill="#FFF" d="M283.9 389.36v14.15l41.31 6.24v-14.92l-41.31-41.51v14.15l26.74 26.39z"/><path fill="#E9EAED" d="M283.9 353.32l41.31 41.51v14.92l15.31-8.85v-14.92l-41.3-41.52z"/><path fill="#262F53" d="M283.9 389.36l26.74 4.5-12.75-12.59z"/><path stroke="#262F53" stroke-linecap="round" stroke-linejoin="round" stroke-width="2.4" d="M290.59 385.5l-3.97-15.35m-2.72-10.57v7.89l26.74 26.39-26.74-4.5v14.15l41.31 6.24v-14.92l-41.31-41.51zm-29.18 1.79l13.26 51.44 14.16 8.19-27.65-107.26-14.16-8.19 14.39 55.8zm-56.64-40.03v14.92l41.32 41.53v-14.16l-26.73-26.4 26.73 4.51v-14.15z"/><path stroke="#262F53" stroke-linecap="round" stroke-linejoin="round" stroke-width="2.4" d="M243.28 317l-29.88-4.51-15.32 8.85m41.32 6.25l5.75-3.33m-5.75 17.48l8.92-5.16m-7.59 4.39l11.71 11.56m-13.04 11.1l13.84-7.99m-13.84 22.15l15.32-8.86v-7.58m-14.39-55.8l15.3-8.85 14.17 8.18 14.1 54.7m-14.1-54.7l-15.31 8.86m41.19 91.55l1.77 6.86-15.31 8.85m1.76-67.68l15.32-8.86 41.3 41.52v14.92l-15.31 8.85m-41.31-20.39l13.99-8.09"/></g></svg>