<svg xmlns="http://www.w3.org/2000/svg" width="570" height="460" viewBox="0 0 570 460"><g fill="none" fill-rule="evenodd"><path fill="#FFF" d="M0 0h570v460H0z"/><path fill="#FFF" d="M182.8 210.184v-40.837l-42.547 24.602v40.846l42.547-24.61zm87.3-12.834v-78.505l-67.858 39.252v78.505L270.1 197.35zm25.056-113.947v137.375c0 6.109-3.713 13.212-8.286 15.856l-159.264 92.128c-2.066 1.198-3.958 1.273-5.41.435l-.114-.066c-1.697-1.051-2.754-3.375-2.754-6.651V185.106c0-6.11 3.705-13.205 8.278-15.857L286.87 77.121c2.008-1.158 3.844-1.265 5.286-.51l.132.083c1.762 1.01 2.868 3.359 2.868 6.709z"/><path fill="#AB5CBB" d="M279.96 69.558l12.197 7.054c-1.443-.755-3.28-.649-5.287.51l-159.264 92.127c-4.574 2.653-8.279 9.747-8.279 15.856V322.48c0 3.277 1.058 5.6 2.755 6.652l-12.213-7.063c-1.762-1.018-2.869-3.375-2.869-6.717V177.977c0-6.117 3.705-13.22 8.278-15.864l159.264-92.12c2.074-1.198 3.968-1.272 5.418-.435"/><path fill="#E9EAED" d="M270.1 118.85v78.5l-67.86 39.25v-78.5z"/><path fill="#262F53" d="M182.8 201.38v8.8l-42.55 24.62v-20.33l9.25-13.96 14.49 8.64 7.36-12.52z"/><path fill="#AB5CBB" d="M166.81 193.753c2.023-1.175 3.67-4.033 3.67-6.38 0-2.35-1.647-3.302-3.67-2.128-2.042 1.174-3.681 4.032-3.681 6.38 0 2.35 1.64 3.31 3.68 2.128zm15.99-24.406v32.034l-11.45-4.746-7.36 12.514-14.491-8.638-9.246 13.96V193.95l42.547-24.603z"/><path fill="#FFF" d="M170.481 187.372c0 2.348-1.647 5.206-3.671 6.38-2.041 1.183-3.68.222-3.68-2.127 0-2.348 1.639-5.206 3.68-6.38 2.024-1.174 3.671-.221 3.671 2.127"/><path stroke="#262F53" stroke-linecap="round" stroke-linejoin="round" stroke-width="2.63" d="M122.082 329.131c-1.697-1.05-2.754-3.374-2.754-6.651V185.105c0-6.109 3.704-13.204 8.278-15.856L286.87 77.12c2.008-1.158 3.844-1.264 5.286-.509m.132.083c1.762 1.01 2.868 3.358 2.868 6.709v137.374c0 6.11-3.713 13.213-8.287 15.857l-159.263 92.128c-2.066 1.199-3.959 1.273-5.41.435"/><path stroke="#262F53" stroke-linecap="round" stroke-linejoin="round" stroke-width="2.63" d="M122.196 329.197l-12.327-7.128c-1.762-1.018-2.869-3.375-2.869-6.716V177.978c0-6.118 3.705-13.222 8.279-15.865l159.264-92.12c2.073-1.199 3.966-1.272 5.417-.435l12.328 7.137"/><path stroke="#262F53" stroke-linecap="round" stroke-linejoin="round" stroke-width="2.63" d="M182.8 201.38v8.8l-42.55 24.62v-40.85l42.55-24.6z"/><path stroke="#262F53" stroke-linecap="round" stroke-linejoin="round" stroke-width="2.63" d="M140.25 214.47l9.25-13.96 14.49 8.64 7.36-12.52 11.45 4.75m-12.319-14.008c0-2.348-1.647-3.301-3.671-2.127-2.041 1.174-3.68 4.032-3.68 6.38 0 2.35 1.639 3.31 3.68 2.127 2.024-1.174 3.671-4.032 3.671-6.38zM140.25 249.86l42.55-24.62m-42.55 35.91l9.46-5.46m11.34-6.57l21.75-12.58m-42.55 35.91l42.55-24.6m-42.55 35.91l24.84-14.36m7.3-4.23l10.41-6.02"/><path stroke="#262F53" stroke-linecap="round" stroke-linejoin="round" stroke-width="3.5" d="M270.1 196.91v.44l-.38.22"/><path stroke="#262F53" stroke-dasharray=".89 8.91" stroke-linecap="round" stroke-linejoin="round" stroke-width="3.5" d="M262.01 202.03l-55.53 32.12"/><path stroke="#262F53" stroke-linecap="round" stroke-linejoin="round" stroke-width="3.5" d="M202.62 236.38l-.38.22v-.44"/><path stroke="#262F53" stroke-dasharray=".89 8.91" stroke-linecap="round" stroke-linejoin="round" stroke-width="3.5" d="M202.24 227.24V163"/><path stroke="#262F53" stroke-linecap="round" stroke-linejoin="round" stroke-width="3.5" d="M202.24 158.54v-.44l.38-.22"/><path stroke="#262F53" stroke-dasharray=".89 8.91" stroke-linecap="round" stroke-linejoin="round" stroke-width="3.5" d="M210.33 153.42l55.53-32.12"/><path stroke="#262F53" stroke-linecap="round" stroke-linejoin="round" stroke-width="3.5" d="M269.72 119.06l.38-.21v.43"/><path stroke="#262F53" stroke-dasharray=".89 8.91" stroke-linecap="round" stroke-linejoin="round" stroke-width="3.5" d="M270.1 128.21v64.24"/><path fill="#FFF" d="M285.27 138.15v63.97l-66.94 38.73v-63.98z"/><path stroke="#262F53" stroke-linecap="round" stroke-linejoin="round" stroke-width="2.63" d="M285.27 202.12l-66.94 38.73v-63.98l66.94-38.72z"/><path fill="#FFF" d="M262.008 184.153l5.11 7.4 7.486 1.328c6.33 5.721 12.035 12.15 19.183 19.556 3.146 3.258 8.587 2.267 10.38-1.889l2.948-6.845c-3.297 2.98-9.635 1.09-10.73-2.57-11.507-8.965-20.673-14.304-30.967-17.878l-3.41.898z"/><path fill="#262F53" d="M292.125 348.295c-2.222-.047-3.29 1.228-2.987 3.435a3.006 3.006 0 0 0 1.774 2.36l11.784 5.153c1.663.733 3.53.886 5.276.39.251-.073.502-.144.765-.225 1.87-.572 2.473-1.632 2.545-3.594a70.24 70.24 0 0 1 .522-5.913c-.212 1.843-6.562 4.988-10.268-1.408l-9.41-.198z"/><path fill="#FFF" d="M309.298 198.636c.607 5.008.626 9.514.375 13.378l.357.02c8.744 10.307 25.53 1.659 30.992-3.25-.33-.866-.599-2.51-.776-4.004a39.873 39.873 0 0 1-.225-2.345c-.173-2.875.402-8.173 1.2-11.754.192-.852.39-1.724.601-2.603 1.273-4.406 3.706-11.404 5.394-16.148l5.216 2.782c5.328-1.685 6.951-6.97 5.117-11.139-4.76-3.336-10.28-6.852-13.175-7.466-5.737-1.228-14.133 1.301-14.133 1.301-4.793 1.606-11.942 4.09-19.512 10.843a19.938 19.938 0 0 0-3.272 3.752 19.977 19.977 0 0 0-2.248 4.447l-8.824 24.683c1.095 3.66 7.432 5.55 10.73 2.57l2.183-5.067z"/><path fill="#E9EAED" d="M326.933 248.59c1.148 22.576 8.841 51.352 10.24 81.652 4.267 5.583 9.788 1.661 9.788 1.661l2.01-39.608c.771-15.321-3.898-17.885-5.059-27.498-1.167-9.613 5.441-21.3 4.926-34.409-.185-4.909-1.404-8.655-2.875-11.84-.64-1.387-1.326-2.669-1.998-3.897-1.114-2.035-2.192-3.918-2.944-5.867-5.46 4.909-22.247 13.557-30.992 3.25l-.355-.02c-.37 5.795-1.346 10.155-1.828 12.613-2.018 8.114-4.787 17.515-5.433 29.295-.871 15.917.844 32.294.917 35.182.099 4.097-1.293 8.985-1.497 15.07-.198 6.092-.297 44.32-.297 44.32 3.706 6.395 10.057 3.25 10.268 1.406 1.45-11.535 5.427-27.292 6.963-37.223 1.992-12.877-1.101-20.276-.995-27.861.079-6.105 6.616-27.94 9.161-36.226"/><path fill="#262F53" d="M327.149 331.348a2.352 2.352 0 0 0 .738 3.41l11.29 6.507c1.28.74 2.816.925 4.247.502l1.55-.45a2.243 2.243 0 0 0 1.609-2.04c.086-1.547.206-4.136.378-7.373 0 0-5.521 3.92-9.789-1.662h-7.94a2.589 2.589 0 0 0-2.083 1.106"/><path fill="#FFF" d="M340.246 204.78c.177 1.494.445 3.138.775 4.004.752 1.95 1.83 3.832 2.944 5.867 1.919-1.222 4.82-3.938 3.983-8.893 6.16-11.377 11.053-20.019 15.53-29.678 1.648-3.568.587-7.803-2.585-10.116a222.273 222.273 0 0 0-3.344-2.391c1.834 4.169.211 9.454-5.117 11.14-4.431 11.218-8.797 22.846-12.186 30.067"/><path stroke="#262F53" stroke-linecap="round" stroke-linejoin="round" stroke-width="2.63" d="M326.933 248.59c1.148 22.576 8.841 51.352 10.24 81.652h-7.94a2.584 2.584 0 0 0-2.084 1.107 2.352 2.352 0 0 0 .738 3.409l11.29 6.507a5.42 5.42 0 0 0 4.247.502l1.55-.449a2.244 2.244 0 0 0 1.609-2.041c.086-1.546 1.866-36.695 2.387-46.982.772-15.321-3.897-17.885-5.058-27.498-1.167-9.613 5.441-21.3 4.926-34.409-.185-4.909-1.404-8.655-2.875-11.84-.64-1.387-1.326-2.669-1.998-3.897-1.114-2.035-2.196-3.916-2.944-5.867-.331-.865-.595-2.51-.775-4.004a40.8 40.8 0 0 1-.224-2.345c-.174-2.875.402-8.173 1.2-11.754.191-.852.388-1.725.6-2.603 1.272-4.407 3.706-11.403 5.394-16.147l5.217 2.78c-4.432 11.22-8.798 22.848-12.187 30.069"/><path stroke="#262F53" stroke-linecap="round" stroke-linejoin="round" stroke-width="2.63" d="M309.298 198.636a72.37 72.37 0 0 1 .375 13.378c-.372 5.795-1.345 10.156-1.826 12.614-2.018 8.112-4.788 17.514-5.434 29.295-.87 15.915.844 32.294.916 35.18.1 4.097-1.292 8.987-1.497 15.071-.197 6.092-.296 44.319-.296 44.319l-9.41-.198c-2.223-.046-3.291 1.229-2.988 3.436a3.005 3.005 0 0 0 1.774 2.358l11.784 5.153c1.662.734 3.53.888 5.276.39.25-.071.501-.144.765-.225 1.87-.57 2.473-1.63 2.545-3.593.073-1.784.252-3.773.521-5.914 1.454-11.534 5.427-27.293 6.964-37.223 1.992-12.876-1.101-20.276-.995-27.86.078-6.106 6.431-28.001 9.161-36.226.032-.094.058-.192.084-.278a16.338 16.338 0 0 1 2.743-5.246c5.6-7.215 7.083-10.98 6.436-20.818m4.825-13.465c-5.46 4.909-22.247 13.557-30.992 3.25m36.932 119.869s-5.521 3.921-9.789-1.662M311.803 349.9c-.21 1.844-6.56 4.988-10.267-1.407m50.896-173.781c5.328-1.685 6.951-6.97 5.118-11.139"/><path stroke="#262F53" stroke-linecap="round" stroke-linejoin="round" stroke-width="2.63" d="M343.965 214.65c1.919-1.222 4.82-3.937 3.983-8.892 6.16-11.377 11.052-20.019 15.53-29.678 1.649-3.568.587-7.803-2.585-10.115a233.066 233.066 0 0 0-3.343-2.392c-4.763-3.335-10.281-6.851-13.176-7.465-5.737-1.23-14.132 1.3-14.132 1.3-4.795 1.606-11.943 4.09-19.514 10.843a19.88 19.88 0 0 0-3.27 3.753 19.96 19.96 0 0 0-2.25 4.446l-8.823 24.684c-11.507-8.967-20.673-14.305-30.967-17.879l-3.41.899 5.11 7.399 7.486 1.328c6.33 5.722 12.034 12.15 19.183 19.557 3.145 3.257 8.586 2.265 10.38-1.89l9.734-22.596m-6.786 15.751c-3.297 2.98-9.635 1.09-10.73-2.57"/><path fill="#FFF" d="M315.877 139.487c-1.796 5.538-1.414 11.432 2.135 14.642.821-4.609 2.666-9.09 2.666-9.09-2.097-1.624-3.724-3.554-4.801-5.552"/><path fill="#262F53" d="M323.298 125.747c-8.932.842-10.728 7.625-7.42 13.74 1.076 1.997 2.702 3.928 4.8 5.552 0 0-1.846 4.48-2.666 9.09-.431 2.419-.585 4.875-.035 6.736 1.586 5.4 3.804 5.844 4.14 10.045.343 4.194-7.233 17.739 4.34 21.722 11.574 3.99 19.215-7.395 19.517-15.17.302-7.774-6.643-17.921-8.254-26.495-1.612-8.573-.684-13.867-5.843-18.182-5.16-4.307-11.624-.96-8.579-7.038"/><path stroke="#262F53" stroke-linecap="round" stroke-linejoin="round" stroke-width="2.63" d="M318.012 154.129c-.431 2.418-.584 4.874-.036 6.736 1.586 5.399 3.804 5.845 4.14 10.045.344 4.194-7.232 17.74 4.342 21.722 11.573 3.99 19.213-7.395 19.515-15.17.303-7.774-6.642-17.922-8.254-26.495-1.61-8.572-.682-13.867-5.842-18.181-5.16-4.308-11.624-.961-8.578-7.04-8.932.843-10.725 7.623-7.422 13.741 1.078 1.997 2.703 3.928 4.801 5.552 0 0-1.845 4.481-2.666 9.09zm-2.135-14.642c-1.796 5.538-1.414 11.432 2.135 14.642"/><path fill="#FFF" d="M271.062 347.809V391l-42.38-24.513c-3.375-12.281-10.209-22.307-13.949-27.137l-.004-.015c1.267-.356 2.106-1.604 2.106-3.579 0-3.282-2.314-7.279-5.143-8.915-2.837-1.641-5.143-.307-5.143 2.983 0 1.957.836 4.19 2.102 6.002-3.732.51-10.59 2.62-13.935 11.013l-1.692-.978V302.67l78.038 45.139z"/><path fill="#E9EAED" d="M228.683 366.486l-33.967-19.647c3.345-8.394 10.203-10.504 13.936-11.013.85 1.22 1.91 2.25 3.04 2.905 1.13.653 2.18.827 3.037.603l.005.015c3.739 4.831 10.573 14.857 13.949 27.137"/><path fill="#FFF" d="M216.835 335.756c0 1.974-.84 3.223-2.106 3.579-.857.223-1.907.05-3.038-.604-1.13-.654-2.188-1.686-3.04-2.905-1.264-1.813-2.102-4.045-2.102-6.002 0-3.29 2.305-4.624 5.142-2.983 2.83 1.636 5.144 5.633 5.144 8.915"/><path stroke="#262F53" stroke-linecap="round" stroke-linejoin="round" stroke-width="2.63" d="M214.729 339.334c1.267-.355 2.106-1.604 2.106-3.578 0-3.282-2.314-7.28-5.143-8.916-2.837-1.64-5.143-.307-5.143 2.984 0 1.957.838 4.19 2.102 6.002.85 1.219 1.91 2.25 3.04 2.905 1.131.653 2.18.827 3.038.603zm-6.077-3.508c-3.733.51-10.59 2.62-13.936 11.013m20.017-7.489c3.74 4.83 10.574 14.856 13.95 27.137"/><path stroke="#262F53" stroke-linecap="round" stroke-linejoin="round" stroke-width="2.63" d="M194.714 346.837l-1.69-.98v-43.19l78.04 45.14v43.19zm39.78-5.17l23.96 13.86m-23.96-6.64l23.96 13.86m-23.96-6.64l12.33 7.13"/><path fill="#FFF" d="M433.517 246.402c4.655-7.932 7.552-16.936 7.552-25.056 0-15.965-11.182-22.433-24.975-14.47-13.793 7.994-24.975 27.398-24.975 43.355 0 8.12 2.89 13.784 7.552 16.326 4.502 2.474 10.637 2.046 17.423-1.88 6.773-3.918 12.92-10.594 17.423-18.275zM464 153.417v144.61l-95.812 55.42v-144.61L464 153.417z"/><path fill="#AB5CBB" d="M441.07 221.346c0 8.12-2.898 17.123-7.553 25.055-4.15-6.36-10.316-8.17-13.94-8.671l-.007-.02c1.452-2.08 2.419-4.626 2.419-6.884 0-3.76-2.652-5.27-5.895-3.394-3.257 1.884-5.894 6.461-5.894 10.228 0 2.25.956 3.697 2.408 4.09l-.004.014c-3.623 4.692-9.803 13.645-13.933 24.794-4.662-2.543-7.552-8.206-7.552-16.327 0-15.957 11.182-35.361 24.975-43.355 13.793-7.963 24.975-1.495 24.975 14.47"/><path fill="#A8ACBA" d="M419.577 237.73c3.624.5 9.79 2.311 13.94 8.671-4.502 7.682-10.65 14.358-17.423 18.276-6.786 3.925-12.92 4.354-17.423 1.88 4.13-11.149 10.31-20.101 13.934-24.794l.003-.013c.985.262 2.187.056 3.486-.695 1.299-.751 2.498-1.939 3.476-3.344l.007.019z"/><path fill="#FFF" d="M421.988 230.826c0 2.258-.966 4.805-2.417 6.884-.98 1.406-2.178 2.593-3.476 3.345-1.3.75-2.501.957-3.487.696-1.452-.394-2.408-1.84-2.408-4.09 0-3.768 2.637-8.345 5.895-10.229 3.243-1.876 5.893-.366 5.893 3.394"/><path stroke="#262F53" stroke-linecap="round" stroke-linejoin="round" stroke-width="2.63" d="M433.517 246.402c4.652-7.934 7.552-16.936 7.552-25.056 0-15.965-11.182-22.433-24.975-14.47-13.793 7.994-24.975 27.398-24.975 43.355 0 8.12 2.894 13.777 7.552 16.326 4.507 2.467 10.637 2.046 17.423-1.88 6.773-3.918 12.918-10.596 17.423-18.275z"/><path stroke="#262F53" stroke-linecap="round" stroke-linejoin="round" stroke-width="2.63" d="M419.57 237.71c1.451-2.08 2.418-4.627 2.418-6.883 0-3.76-2.65-5.27-5.894-3.395-3.257 1.884-5.894 6.46-5.894 10.229 0 2.25.956 3.697 2.408 4.089.986.262 2.187.056 3.486-.695 1.298-.752 2.497-1.939 3.477-3.344zm-6.966 4.053c-3.623 4.692-9.803 13.646-13.933 24.794m20.906-28.827c3.624.5 9.79 2.311 13.94 8.671"/><path stroke="#262F53" stroke-linecap="round" stroke-linejoin="round" stroke-width="2.63" d="M464.004 298.027l-95.82 55.42v-144.61l95.82-55.42zm-66.45-8.22l9.46-5.47m10.87-6.29l17.12-9.9m-37.45 31.43l37.45-21.67m-27.65 25.75l19.94-11.53"/></g></svg>