<svg xmlns="http://www.w3.org/2000/svg" width="570" height="460" viewBox="0 0 570 460"><g fill="none" fill-rule="evenodd"><path fill="#FFF" d="M0 0h570v460H0z"/><path fill="#FFF" d="M212.058 292.19c6.552 2.771 11.49 6.318 14.699 10.248 7.093 8.703 5.71 19.29-5.166 27.505-15.817 11.946-45.714 14.4-66.782 5.487-21.079-8.917-25.343-25.823-9.527-37.77 15.801-11.933 45.698-14.387 66.776-5.47"/><path stroke="#262F53" stroke-linecap="round" stroke-linejoin="round" stroke-width="2.4" d="M226.757 302.438c-3.209-3.93-8.147-7.477-14.698-10.248-21.08-8.917-50.976-6.463-66.777 5.47-15.816 11.947-11.551 28.853 9.527 37.77 21.069 8.914 50.966 6.46 66.781-5.487 10.878-8.215 12.26-18.802 5.167-27.505z"/><path stroke="#262F53" stroke-linecap="round" stroke-linejoin="round" stroke-width="2.4" d="M171.04 316.99l-4.87 10.5 17.32-5.77m1.92-15.59l16.47-5.6-4.91 11.02m-1.47 11.71l-23.46-18.6"/><path fill="#262F53" d="M336.79 377.55v30.3L310.54 423v-30.3z"/><path fill="#FFF" d="M336.79 377.55l-26.25 15.15-26.24-15.15 26.24-15.15z"/><path fill="#A8ACBA" d="M310.54 392.7V423l-26.24-15.15v-30.3z"/><path stroke="#262F53" stroke-linecap="round" stroke-linejoin="round" stroke-width="2.4" d="M284.3 377.55l26.24-15.15 26.25 15.15-26.25 15.15zm26.24 15.15V423"/><path stroke="#262F53" stroke-linecap="round" stroke-linejoin="round" stroke-width="2.4" d="M284.3 377.55v30.3L310.54 423l26.25-15.15v-30.3"/><path fill="#262F53" d="M402.41 347.25v23.9l-26.24 15.15v-23.9z"/><path fill="#FFF" d="M402.41 347.25l-26.24 15.15-26.24-15.15 26.24-15.15z"/><path fill="#A8ACBA" d="M376.17 362.4v23.9l-26.25-15.15v-23.9z"/><path stroke="#262F53" stroke-linecap="round" stroke-linejoin="round" stroke-width="2.4" d="M349.92 347.25l26.25-15.15 26.24 15.15-26.24 15.15zm26.25 15.15v23.9"/><path stroke="#262F53" stroke-linecap="round" stroke-linejoin="round" stroke-width="2.4" d="M349.92 347.25v23.9l26.25 15.15 26.24-15.15v-23.9"/><path fill="#262F53" d="M458 323.06v14.32l-26.25 15.15v-14.32z"/><path fill="#AB5CBB" d="M458 323.06l-26.25 15.15-26.24-15.15 26.24-15.15z"/><path fill="#A8ACBA" d="M431.76 338.21v14.32l-26.25-15.15v-14.32z"/><path stroke="#262F53" stroke-linecap="round" stroke-linejoin="round" stroke-width="2.4" d="M405.51 323.06l26.25-15.15L458 323.06l-26.24 15.15zm26.25 15.15v14.32"/><path stroke="#262F53" stroke-linecap="round" stroke-linejoin="round" stroke-width="2.4" d="M405.51 323.06v14.32l26.25 15.15L458 337.38v-14.32"/><path fill="#262F53" d="M429.499 141.601v110.27c0 2.087-.555 3.447-1.553 4.042l-10.606 6.108c1.019-.584 1.573-1.945 1.573-4.032V134.746c0-2.287-.776-4.788-2.006-6.844-.958-1.633-2.198-2.994-3.549-3.78L275.926 44.788c-1.361-.786-2.602-.857-3.57-.333l10.516-6.088c.978-.555 2.248-.504 3.65.302l137.422 79.333c1.36.796 2.6 2.147 3.558 3.79 1.23 2.046 1.997 4.536 1.997 6.835V141.6z"/><path fill="#FFF" d="M418.913 147.72v110.27c0 2.086-.555 3.447-1.573 4.031-.998.585-2.45.384-4.254-.654l-137.16-79.182c-1.401-.806-2.692-2.248-3.66-3.952-1.18-2.036-1.916-4.455-1.916-6.683V61.663l148.563 85.755v.302z"/><path fill="#515975" d="M284.213 60.121c0-1.794-1.26-3.971-2.813-4.869-1.552-.887-2.802-.161-2.802 1.623 0 1.795 1.25 3.972 2.802 4.87 1.553.886 2.813.16 2.813-1.624m9.93 5.726c0-1.784-1.26-3.961-2.812-4.859-1.553-.897-2.803-.171-2.803 1.623 0 1.785 1.25 3.962 2.803 4.859 1.552.897 2.812.171 2.812-1.623m9.92 5.736c0-1.795-1.25-3.972-2.802-4.86-1.553-.896-2.813-.17-2.813 1.614 0 1.794 1.26 3.972 2.813 4.869 1.553.897 2.803.171 2.803-1.623m114.85 63.164v12.67L270.35 61.664V48.993c0-2.238.746-3.811 1.925-4.496l.08-.04c.968-.525 2.209-.455 3.57.332l137.432 79.333c1.351.786 2.591 2.147 3.548 3.78 1.23 2.056 2.007 4.556 2.007 6.845"/><path fill="#262F53" d="M301.26 66.724c1.554.887 2.804 3.065 2.804 4.859s-1.25 2.52-2.803 1.623c-1.553-.898-2.813-3.075-2.813-4.87 0-1.783 1.26-2.51 2.813-1.612m-9.931-5.736c1.553.898 2.813 3.074 2.813 4.859 0 1.795-1.26 2.52-2.813 1.623-1.552-.898-2.802-3.074-2.802-4.859 0-1.794 1.25-2.52 2.802-1.623m-9.93-5.736c1.553.898 2.813 3.075 2.813 4.87 0 1.784-1.26 2.51-2.813 1.622-1.553-.897-2.803-3.075-2.803-4.869 0-1.784 1.25-2.51 2.803-1.623"/><path stroke="#262F53" stroke-linecap="round" stroke-linejoin="round" stroke-width="2.4" d="M272.276 44.497c-1.18.685-1.925 2.258-1.925 4.496V171.55c0 2.228.735 4.647 1.915 6.683.968 1.704 2.258 3.146 3.66 3.952l137.16 79.182c1.804 1.038 3.253 1.235 4.254.654 1.016-.589 1.573-1.945 1.573-4.031V134.746c0-2.288-.776-4.788-2.006-6.844-.958-1.633-2.198-2.994-3.549-3.78L275.925 44.79c-1.36-.786-2.6-.856-3.568-.333M270.35 61.66l148.56 85.76"/><path stroke="#262F53" stroke-linecap="round" stroke-linejoin="round" stroke-width="2.4" d="M272.276 44.497l10.596-6.13c.978-.553 2.248-.503 3.65.303l137.422 79.333c1.361.796 2.6 2.148 3.559 3.79 1.23 2.046 1.995 4.536 1.995 6.835V251.87c0 2.086-.553 3.447-1.552 4.042l-10.606 6.108"/><path fill="#A8ACBA" d="M396.55 161.78v29.58l-25.61-14.8v-29.57z"/><path fill="#AB5CBB" d="M354.31 137.39v29.58l-25.61-14.79v-29.57z"/><path fill="#FFF" d="M312.07 113.01v29.58l-25.62-14.8V98.22z"/><path stroke="#262F53" stroke-linecap="round" stroke-linejoin="round" stroke-width="2.4" d="M312.07 142.59l-25.62-14.8V98.22l25.62 14.79zm-25.16-3.96l25.16 14.53m-25.16-5.7l9.41 5.43m7.05 4.07l8.7 5.03m-25.16-5.71l16.46 9.51m50.94 1.18l-25.61-14.79v-29.57l25.61 14.78zm-25.16-3.95l15.98 9.22m6.443 3.716c1.678.975 2.74 1.582 2.74 1.582m-25.163-5.698l23.79 13.74m-23.79-4.91l16.47 9.51m50.93 1.18l-25.61-14.8v-29.57l25.61 14.79zm-25.16-3.96l25.16 14.53m-25.16-5.7l6.39 3.68m5.97 3.45l12.8 7.4m-25.16-5.71l9.55 5.52"/><path fill="#262F53" d="M357.62 183.95l36.64 62.37-11.64 6.71-36.87-62.75z"/><path fill="#A8ACBA" d="M345.75 190.28l36.87 62.76-21.78-12.58v58.96l-30.17-17.41v-58.96l-21.78-12.58z"/><path fill="#262F53" d="M372.47 247.17v45.53l-11.63 6.72v-58.96z"/><path stroke="#262F53" stroke-linecap="round" stroke-linejoin="round" stroke-width="2.4" d="M382.62 253.04l-36.87-62.76-36.86 20.19 21.78 12.58v58.96l30.17 17.41v-58.96z"/><path stroke="#262F53" stroke-linecap="round" stroke-linejoin="round" stroke-width="2.4" d="M382.62 253.04l11.64-6.72-36.64-62.37-11.87 6.33m15.09 109.14l11.63-6.72v-45.53"/><path fill="#FFF" d="M206.075 133.947c1.383-.8 2.502-2.741 2.502-4.34 0-1.598-1.12-2.245-2.502-1.446-1.39.8-2.51 2.741-2.51 4.34 0 1.597 1.12 2.245 2.51 1.446zm39.281-45.422v120.754L112 286.274V165.52l133.356-76.995zm-57.335 87.127l4.036-2.333v-34.841l-26.694 15.412-26.414 15.242-.008.008-10.35 5.977v34.841l6.594-3.803v-.008l13.211-7.616.008-.008 13.195-7.615.008-.008 26.414-15.248z"/><path fill="#FFF" d="M208.577 129.607c0 1.599-1.12 3.54-2.502 4.34-1.39.799-2.51.151-2.51-1.447s1.12-3.54 2.51-4.339c1.383-.799 2.502-.152 2.502 1.446M192.06 168.65v4.67l-4.04 2.33z"/><path fill="#FFF" d="M192.06 153.41v15.24l-4.04 7-13.2 7.62zm0-14.93v14.93l-17.24 29.86-13.21 7.63 30.17-52.26z"/><path fill="#FFF" d="M191.78 138.64l-30.17 52.26-.01.01-13.2 7.61 30.17-52.26z"/><path fill="#FFF" d="M178.57 146.26l-30.17 52.26v.01l-13.21 7.62 30.17-52.26z"/><path fill="#FFF" d="M165.36 153.89l-30.17 52.26-6.6 3.81v-7.63l23.57-40.82z"/><path fill="#FFF" d="M138.95 169.13l13.21-7.62-23.57 40.82v-15.25l10.35-17.94z"/><path fill="#FFF" d="M138.94 169.14l-10.35 17.94v-11.96z"/><path stroke="#262F53" stroke-linecap="round" stroke-linejoin="round" stroke-width="2.4" d="M245.36 209.28L112 286.27V165.52l133.36-77z"/><path stroke="#262F53" stroke-linecap="round" stroke-linejoin="round" stroke-width="2.4" d="M165.36 153.89l26.7-15.41v34.84l-30.45 17.58m-22.66-21.77l26.41-15.24m-30.17 52.26l-6.6 3.81v-34.84l10.35-5.98m9.46 29.39l-13.21 7.62m26.41-15.24l-13.2 7.61"/><path stroke="#262F53" stroke-linecap="round" stroke-linejoin="round" stroke-width="2.4" d="M128.59 187.08l10.35-17.94.01-.01m-10.36 33.2l23.57-40.82m-16.97 44.64l30.17-52.26m-16.96 44.64v-.01l30.17-52.26m-16.97 44.65l.01-.01 30.17-52.26m-16.97 44.64l17.25-29.87m-4.05 22.25l.01-.01 4.04-7m16.517-39.043c0-1.598-1.12-2.245-2.502-1.446-1.39.8-2.51 2.741-2.51 4.34 0 1.597 1.12 2.245 2.51 1.446 1.383-.8 2.502-2.741 2.502-4.34zm3.943-1.757l9.09-5.25m3.35-1.93l2.43-1.4"/><path fill="#A8ACBA" d="M237.814 225.14c-.165 2.148 1.495 4.042 3.656 4.074 3.6.05 6.269-1.05 8.429-2.915.292-.252.577-.513.85-.792-4.31.742-10.59-1.61-12.003-6.28-.45 1.781-.767 3.739-.932 5.913m4.106 133.025c-1.635-.482-3.238.945-2.883 2.61.17.78.514 1.699 1.141 2.783 2.478 4.283 6.857 4.758 8.758 5.994 1.9 1.242 5.139 3.428 7.712 5.518 2.567 2.098 6.375.387 7.706-.38 1.02-.582 1.04-2.838 1.033-5.404-3.27 2.705-16.523-1.56-16.662-9.328-2.497-.57-5.043-1.28-6.805-1.793"/><path fill="#AB5CBB" d="M294.508 208.735c.938 1.59 1.797 2.972 2.52 4.106 2.84-.609 6.996-6.45 7.858-9.91-3.01-5.405-6.286-10.037-10.526-14.618-3.695-3.992-9.531-5.196-14.538-3.055-.81.349-1.666.72-2.547 1.107-3.63 1.592-7.775 3.487-11.717 5.477-3.441 1.742-6.73 3.548-9.385 5.291-1.705 1.115-3.143 2.199-4.196 3.213-3.447 3.332-6.742 6.317-9.296 10.061-1.699 2.497-3.068 5.323-3.936 8.82 1.413 4.67 7.694 7.021 12.003 6.28-.273.28-.558.539-.849.792.728 10.449-.006 19.96-.843 28.9 3.726 2.49 8.504 4.962 12.84 4.962 8.117 0 19.048-5.184 27.153-12.394-.018-1.14-.139-15.43-.139-15.512 0-10.36 3.785-16.088 5.598-23.52"/><path fill="#515975" d="M269.854 287.584c1.965 16.798 6.147 29.648 6.806 55.007.05 2.053.09 7.35.09 7.831-.004 2.167.944 3.713 2.363 4.727 2.953 2.117 7.915 1.9 10.304.184.818-.583 1.331-1.337 1.369-2.237.228-5.525.665-20.587.665-31.01 0-10.43-3.878-20.72-3.878-33.957 0-13.23 1.603-18.311 1.603-28.469 0-4.86-.063-8.218-.126-11.893-8.106 7.21-19.037 12.393-27.155 12.393-4.335 0-9.113-2.47-12.84-4.96-.722 7.679-1.514 14.934-1.514 22.012 0 17.108 2.016 24.597 2.016 37.074 0 12.47-.44 36.353-.83 45.267a5.73 5.73 0 0 0-.002.406c.255 7.765 13.391 12.032 16.662 9.327a1.9 1.9 0 0 0 .69-1.179c.828-4.874 2.136-14.497 2.136-32.315 0-17.824-.71-20.676-.71-33.386 0-4.519 1.02-9.676 2.351-14.822"/><path fill="#A8ACBA" d="M254.183 184.32c-1.16 1.636-8.156 15.95-11.502 26.088 2.554-3.746 5.849-6.73 9.297-10.063 1.052-1.014 2.49-2.097 4.195-3.212l1.096-3.643a3.228 3.228 0 0 1 1.61-1.933c1.28-.672 2.807-2.104 3.137-3.422.507-2.027.944-3.06.437-4.454-.241-.678.646-2.813 1.255-4.208l-1.23-1.21c-2.928 1.838-7.37 4.765-8.295 6.058"/><path fill="#262F53" d="M261.432 150.675c-1.33 1.406-2.89 3.801-2.293 6.938.272 1.413.76 2.768 1.35 4.068 1.146 2.56 2.674 4.917 3.618 7.147.456-.095.836-.139.925-.139 1.204 0 1.882 1.647 1.882 2.763 0 .9-.62 1.564-1.42 2.046 1.464 4.093 5 9.365 9.405 8.706a4.88 4.88 0 0 0 2.009-.809c3.999-2.667 6.128-11.053 5.5-16.926-.722-6.786-11.007-8.637-15.095-10.348-1.558-.652-2.674-2.06-3.371-3.2-.539-.886-1.793-1.007-2.51-.246"/><path fill="#A8ACBA" d="M263.707 179.473l.203.203a5.827 5.827 0 0 1 1.743 4.226l-.095 7.94c3.941-1.99 8.086-3.887 11.718-5.477l-.368-4.97a4.87 4.87 0 0 1-2.01.809c-4.404.66-7.94-4.613-9.404-8.706.799-.481 1.42-1.147 1.42-2.046 0-1.116-.678-2.763-1.882-2.763-.089 0-.47.044-.926.14-.944-2.231-2.47-4.588-3.618-7.148-.627 3.327-.925 7.996-1.052 10.88a5.819 5.819 0 0 0 1.736 4.416l2.535 2.496zm10.045 165.113c-.057 1.534 1.406 3.035 2.997 4.41a285.458 285.458 0 0 0-.089-6.406c-1.584-.323-2.839.222-2.908 1.996m5.361 10.564l.114 1.9c.044.824.557 1.54 1.299 1.888 2.763 1.267 4.867 1.198 7.503.102a2.208 2.208 0 0 0 1.375-2.009c.007-.487.013-1.07.013-1.698-2.389 1.717-7.351 1.932-10.304-.184m9.797-122.653c0 4.962.038 8.586.082 11.691 7.23-7.845 12.415-14.2 19.151-22.723a9.356 9.356 0 0 0 1.173-9.707c-1.464-3.194-2.915-6.108-4.43-8.827-.862 3.46-5.019 9.302-7.858 9.91a97.669 97.669 0 0 0 1.407 2.155 2.16 2.16 0 0 1-.101 2.547c-3.568 4.53-6.585 10.417-9.424 14.954"/><path stroke="#262F53" stroke-linecap="round" stroke-linejoin="round" stroke-width="2.4" d="M277.275 186.365c.881-.387 1.737-.758 2.548-1.106 5.006-2.142 10.842-.938 14.537 3.054 4.24 4.58 7.516 9.213 10.526 14.617 1.514 2.719 2.965 5.633 4.43 8.827a9.356 9.356 0 0 1-1.173 9.707c-6.736 8.523-11.92 14.878-19.15 22.723m-33.175-26.112c-1.56 2.883-3.128 5.465-5.07 7.432-.274.277-.557.54-.85.792-2.16 1.864-4.828 2.966-8.428 2.915-2.16-.032-3.82-1.926-3.656-4.075.165-2.173.485-4.13.932-5.911.875-3.496 2.235-6.325 3.935-8.82 2.552-3.746 5.849-6.73 9.297-10.063 1.051-1.014 2.49-2.096 4.195-3.212 2.656-1.74 5.943-3.55 9.385-5.291 3.94-1.992 8.086-3.887 11.717-5.477"/><path stroke="#262F53" stroke-linecap="round" stroke-linejoin="round" stroke-width="2.4" d="M295.463 200.979c0 2.89-.38 5.404-.955 7.755-1.818 7.432-5.598 13.161-5.598 23.522 0 .082.266 22.544.266 27.404 0 10.157-1.603 15.239-1.603 28.47 0 13.236 3.879 23.526 3.879 33.956 0 10.423-.438 25.485-.666 31.01-.038.9-.552 1.653-1.368 2.237-2.393 1.712-7.35 1.93-10.305-.184-1.42-1.015-2.367-2.56-2.364-4.727.001-.482-.036-5.779-.088-7.832-.643-25.358-4.842-38.208-6.807-55.005v-.026"/><path stroke="#262F53" stroke-linecap="round" stroke-linejoin="round" stroke-width="2.4" d="M275.938 263.671c-.228 5.285-3.668 14.574-6.084 23.913-1.33 5.146-2.35 10.303-2.35 14.82 0 12.712.709 15.564.709 33.387 0 17.819-1.31 27.442-2.136 32.316a1.896 1.896 0 0 1-.69 1.178c-3.27 2.706-16.408-1.561-16.662-9.326a5.29 5.29 0 0 1 .002-.406c.389-8.914.83-32.798.83-45.267 0-12.476-2.016-19.966-2.016-37.074 0-7.078.795-14.333 1.515-22.012.839-8.94 1.572-18.452.843-28.901"/><path stroke="#262F53" stroke-linecap="round" stroke-linejoin="round" stroke-width="2.4" d="M289.056 247.76c-8.105 7.21-19.043 12.401-27.161 12.401-4.334 0-9.113-2.472-12.839-4.962m45.452-46.464c.938 1.59 1.798 2.97 2.52 4.106.552.867 1.033 1.596 1.406 2.154a2.16 2.16 0 0 1-.1 2.548c-3.569 4.53-6.585 10.416-9.424 14.953m15.976-29.566c-.862 3.46-5.019 9.302-7.858 9.91m-46.28 12.667c-4.31.742-10.59-1.61-12.003-6.28-.006-.006-.006-.012-.006-.012m26.648 150.071c.006 2.566-.013 4.821-1.033 5.405-1.331.766-5.14 2.477-7.706.38-2.573-2.091-5.81-4.277-7.712-5.52-1.902-1.235-6.28-1.71-8.758-5.993-.627-1.084-.97-2.003-1.141-2.782-.355-1.666 1.248-3.092 2.883-2.61 1.762.512 4.308 1.222 6.805 1.792m40.692-4.625c0 .627-.006 1.21-.013 1.698a2.208 2.208 0 0 1-1.374 2.009c-2.637 1.095-4.741 1.166-7.504-.102-.74-.348-1.255-1.064-1.299-1.888l-.114-1.901m-2.453-12.559c-1.584-.322-2.838.223-2.908 1.997-.057 1.533 1.407 3.035 2.997 4.41m.531-162.637l-.37-4.96m-11.352 10.442l.095-7.94a5.825 5.825 0 0 0-1.743-4.226l-2.737-2.7a5.82 5.82 0 0 1-1.737-4.416c.127-2.882.425-7.552 1.052-10.879"/><path stroke="#262F53" stroke-linecap="round" stroke-linejoin="round" stroke-width="2.4" d="M276.908 181.395c-.63.423-1.3.702-2.01.81-4.403.659-7.94-4.614-9.404-8.707.8-.481 1.42-1.147 1.42-2.046 0-1.116-.678-2.763-1.882-2.763-.089 0-.469.044-.925.139-.944-2.23-2.466-4.59-3.62-7.147-.585-1.3-1.076-2.655-1.349-4.068-.595-3.136.964-5.532 2.295-6.938.716-.76 1.97-.64 2.509.246.697 1.142 1.813 2.548 3.371 3.2 4.088 1.712 14.373 3.562 15.096 10.348.627 5.873-1.512 14.245-5.501 16.926zm-20.735 15.738l1.096-3.643a3.228 3.228 0 0 1 1.61-1.933c1.28-.672 2.807-2.104 3.137-3.421.506-2.029.944-3.061.437-4.455-.24-.678.646-2.813 1.255-4.208m-1.23-1.21c-2.927 1.837-7.37 4.765-8.295 6.057-1.16 1.635-8.156 15.95-11.502 26.087"/></g></svg>