<svg  viewBox="0 0 22 13" fill="none" xmlns="http://www.w3.org/2000/svg">
<path d="M1.45962 5.0937C1.34829 5.27198 1.24421 5.45221 1.14757 5.63341C0.374829 7.08338 0.0672891 8.61582 0.558219 9.84021C0.73409 10.2787 1.21757 10.4962 1.62929 10.3699C2.04107 10.2436 2.34084 9.79593 2.32429 9.20365C2.29557 8.18106 2.95722 7.48444 3.7858 7.27584C4.61447 7.06717 5.58869 7.34164 6.22795 8.44784C6.98455 9.75715 8.68569 11.4006 10.8793 12.1983C13.073 12.996 15.7814 12.8862 18.3244 10.6349C19.3056 9.76616 20.4129 8.45273 20.9612 6.90632C21.5521 5.31197 21.7232 3.1584 21.026 2.24322C21.1307 2.71472 21.1323 3.16399 21.0708 3.59965C20.7558 2.60029 20.0906 1.59983 18.9504 0.675325L18.3797 0.212614L18.3975 0.941713C18.409 1.4109 18.4253 1.86453 18.3995 2.26699C18.262 2.06624 18.0722 1.84379 17.8169 1.56816C18.0887 2.22377 18.1683 2.82861 18.0735 3.42438C17.8759 3.70898 17.5561 3.91325 16.9807 4.03664C16.3788 4.16576 15.5899 3.97749 14.68 3.60834C13.7701 3.23921 12.7498 2.70403 11.6692 2.22378C9.50777 1.26337 7.03696 0.511589 4.71385 1.88943C3.36883 2.68717 2.23883 3.84527 1.45962 5.0937ZM2.03793 5.4552C2.76239 4.29705 3.8253 3.20711 5.06591 2.47126C7.11844 1.25393 9.28992 1.9046 11.3971 2.84089C12.4507 3.30907 13.4711 3.84581 14.4287 4.23425C14.7045 4.3462 14.9758 4.44643 15.2426 4.52898C14.9405 5.0226 14.4394 5.23351 13.6264 5.36869C14.7521 5.73686 15.04 5.71154 15.9226 5.65155C15.1027 6.38833 13.6112 6.89636 12.2667 6.9621C13.4937 7.86166 14.9718 7.738 15.6266 7.56694C14.6744 8.08825 13.0947 8.67914 11.1057 8.5064C12.4215 9.3613 14.1689 9.86768 15.5771 9.65591C14.5271 10.528 11.0934 9.75364 9.78366 9.84692C10.5986 10.9224 12.5982 11.7097 14.2951 11.9177C13.1731 12.0904 12.0963 11.9227 11.1072 11.5631C9.09636 10.832 7.47065 9.24691 6.8163 8.11473C6.04462 6.77942 4.71716 6.34197 3.61326 6.61985C2.5093 6.89783 1.60765 7.88635 1.64491 9.21602C1.65572 9.5993 1.51601 9.6949 1.42355 9.72323C1.33104 9.75162 1.24551 9.73504 1.18913 9.59455C0.811803 8.65359 1.03496 7.2938 1.74867 5.95466C1.83785 5.78729 1.93446 5.62063 2.03793 5.4552Z" fill="#3D3D3D"/>
</svg>
