<svg  viewBox="0 0 132 42" fill="none" xmlns="http://www.w3.org/2000/svg">
<path d="M128.173 20.9431C127.01 20.9431 126.07 20.6299 125.354 20.0033C124.66 19.3544 124.313 18.5489 124.313 17.5867C124.313 16.6021 124.66 15.7854 125.354 15.1365C126.07 14.4875 127.01 14.1631 128.173 14.1631C129.315 14.1631 130.232 14.4875 130.926 15.1365C131.642 15.7854 132 16.6021 132 17.5867C132 18.5489 131.642 19.3544 130.926 20.0033C130.232 20.6299 129.315 20.9431 128.173 20.9431ZM131.429 22.6885V41.5182H124.851V22.6885H131.429Z" fill="#3D3D3D"/>
<path d="M116.418 26.0122C117.156 24.9381 118.051 24.0878 119.103 23.4613C120.154 22.8348 121.284 22.5215 122.493 22.5215V29.5365H120.647C119.215 29.5365 118.152 29.8162 117.458 30.3756C116.764 30.935 116.418 31.9084 116.418 33.2957V41.519H109.839V22.6893H116.418V26.0122Z" fill="#3D3D3D"/>
<path d="M85.9512 32.0862C85.9512 30.1394 86.298 28.4388 86.9917 26.9843C87.7077 25.5299 88.6699 24.4111 89.8782 23.6279C91.1089 22.8447 92.4739 22.4531 93.9731 22.4531C95.2709 22.4531 96.3898 22.7105 97.3296 23.2251C98.2694 23.7398 98.9966 24.4334 99.5113 25.3061V22.6881H106.09V41.5178H99.5113V38.8998C98.9966 39.7724 98.2582 40.4661 97.296 40.9808C96.3562 41.4954 95.2486 41.7527 93.9731 41.7527C92.4739 41.7527 91.1089 41.3612 89.8782 40.578C88.6699 39.7948 87.7077 38.676 86.9917 37.2215C86.298 35.7447 85.9512 34.0329 85.9512 32.0862ZM99.5113 32.0862C99.5113 30.8778 99.1756 29.9268 98.5043 29.2332C97.8554 28.5395 97.0499 28.1927 96.0877 28.1927C95.1031 28.1927 94.2864 28.5395 93.6375 29.2332C92.9885 29.9045 92.6641 30.8555 92.6641 32.0862C92.6641 33.2945 92.9885 34.2567 93.6375 34.9727C94.2864 35.6664 95.1031 36.0132 96.0877 36.0132C97.0499 36.0132 97.8554 35.6664 98.5043 34.9727C99.1756 34.279 99.5113 33.3169 99.5113 32.0862Z" fill="#3D3D3D"/>
<path d="M73.6832 35.9132V41.5185H70.8302C66.0193 41.5185 63.6138 39.1354 63.6138 34.3693V28.1598H61.2979V22.6888H63.6138V18.124H70.226V22.6888H73.6496V28.1598H70.226V34.47C70.226 34.9846 70.3379 35.3538 70.5617 35.5776C70.8078 35.8014 71.2106 35.9132 71.77 35.9132H73.6832Z" fill="#3D3D3D"/>
<path d="M51.5178 41.7527C49.8172 41.7527 48.2956 41.473 46.953 40.9136C45.6328 40.3318 44.5811 39.5487 43.7979 38.5641C43.0371 37.5572 42.612 36.4272 42.5225 35.1741H48.8997C48.9892 35.7783 49.2689 36.2482 49.7388 36.5838C50.2087 36.9194 50.7905 37.0873 51.4842 37.0873C52.0212 37.0873 52.4464 36.9754 52.7597 36.7516C53.0729 36.5279 53.2296 36.237 53.2296 35.8789C53.2296 35.409 52.9722 35.0622 52.4576 34.8384C51.9429 34.6147 51.0926 34.3685 49.9067 34.1C48.5641 33.8315 47.4453 33.5294 46.5502 33.1938C45.6552 32.8581 44.872 32.3099 44.2007 31.5491C43.5518 30.7883 43.2273 29.759 43.2273 28.4612C43.2273 27.3424 43.5294 26.3354 44.1336 25.4404C44.7377 24.5229 45.6216 23.7957 46.7852 23.2587C47.9711 22.7216 49.392 22.4531 51.0479 22.4531C53.5093 22.4531 55.4448 23.0573 56.8545 24.2656C58.2642 25.4739 59.081 27.0627 59.3047 29.0318H53.3638C53.2519 28.4276 52.9834 27.9689 52.5583 27.6556C52.1555 27.32 51.6073 27.1522 50.9136 27.1522C50.3766 27.1522 49.9626 27.2529 49.6717 27.4542C49.4032 27.6556 49.2689 27.9353 49.2689 28.2934C49.2689 28.7409 49.5263 29.0877 50.0409 29.3339C50.5556 29.5576 51.3835 29.7926 52.5247 30.0387C53.8897 30.3296 55.0197 30.6541 55.9147 31.0121C56.8322 31.3701 57.6265 31.9519 58.2978 32.7574C58.9915 33.5406 59.3383 34.6147 59.3383 35.9796C59.3383 37.0761 59.0138 38.0606 58.3649 38.9333C57.7384 39.806 56.8321 40.4997 55.6462 41.0143C54.4826 41.5066 53.1065 41.7527 51.5178 41.7527Z" fill="#3D3D3D"/>
<path d="M40.8039 31.8848C40.8039 32.3994 40.7704 32.9141 40.7032 33.4287H28.2508C28.3179 34.458 28.5976 35.23 29.0899 35.7447C29.6046 36.237 30.2535 36.4831 31.0366 36.4831C32.1331 36.4831 32.9163 35.9908 33.3862 35.0063H40.4012C40.1103 36.3041 39.5397 37.4677 38.6894 38.497C37.8614 39.5039 36.8097 40.2983 35.5343 40.8801C34.2588 41.4619 32.8491 41.7527 31.3052 41.7527C29.4479 41.7527 27.7921 41.3612 26.3376 40.578C24.9055 39.7948 23.7755 38.676 22.9476 37.2215C22.142 35.7671 21.7393 34.0553 21.7393 32.0862C21.7393 30.117 22.142 28.4164 22.9476 26.9843C23.7531 25.5299 24.872 24.4111 26.304 23.6279C27.7585 22.8447 29.4255 22.4531 31.3052 22.4531C33.1624 22.4531 34.8071 22.8335 36.2391 23.5943C37.6712 24.3551 38.7901 25.4516 39.5956 26.8836C40.4012 28.2934 40.8039 29.9604 40.8039 31.8848ZM34.091 30.2401C34.091 29.4346 33.8225 28.808 33.2855 28.3605C32.7484 27.8906 32.0771 27.6556 31.2716 27.6556C30.466 27.6556 29.8059 27.8794 29.2913 28.3269C28.7766 28.7521 28.441 29.3898 28.2843 30.2401H34.091Z" fill="#3D3D3D"/>
<path d="M6.57865 25.3077C7.09331 24.4127 7.82054 23.719 8.76035 23.2267C9.70016 22.7121 10.8078 22.4547 12.0832 22.4547C13.5825 22.4547 14.9362 22.8463 16.1446 23.6295C17.3753 24.4127 18.3374 25.5315 19.0311 26.986C19.7471 28.4404 20.1052 30.141 20.1052 32.0878C20.1052 34.0345 19.7471 35.7463 19.0311 37.2232C18.3374 38.6776 17.3753 39.7964 16.1446 40.5796C14.9362 41.3628 13.5825 41.7544 12.0832 41.7544C10.8078 41.7544 9.70016 41.5082 8.76035 41.0159C7.82054 40.5013 7.09331 39.7964 6.57865 38.9014V41.5194H0V16.6816H6.57865V25.3077ZM13.4258 32.0878C13.4258 30.8571 13.0902 29.9061 12.4189 29.2348C11.77 28.5411 10.9644 28.1943 10.0022 28.1943C9.04006 28.1943 8.22332 28.5411 7.55203 29.2348C6.90311 29.9285 6.57865 30.8794 6.57865 32.0878C6.57865 33.3185 6.90311 34.2807 7.55203 34.9743C8.22332 35.668 9.04006 36.0148 10.0022 36.0148C10.9644 36.0148 11.77 35.668 12.4189 34.9743C13.0902 34.2583 13.4258 33.2961 13.4258 32.0878Z" fill="#3D3D3D"/>
<rect x="76.9238" y="22.5479" width="7.29664" height="18.9713" fill="#3D3D3D"/>
<path d="M64.4596 11.0937C64.3483 11.272 64.2442 11.4522 64.1476 11.6334C63.3748 13.0834 63.0673 14.6158 63.5582 15.8402C63.7341 16.2787 64.2176 16.4962 64.6293 16.3699C65.0411 16.2436 65.3408 15.7959 65.3243 15.2037C65.2956 14.1811 65.9572 13.4844 66.7858 13.2758C67.6145 13.0672 68.5887 13.3416 69.2279 14.4478C69.9845 15.7571 71.6857 17.4006 73.8793 18.1983C76.073 18.996 78.7814 18.8862 81.3244 16.6349C82.3056 15.7662 83.4129 14.4527 83.9612 12.9063C84.5521 11.312 84.7232 9.1584 84.026 8.24322C84.1307 8.71472 84.1323 9.16399 84.0708 9.59965C83.7558 8.60029 83.0906 7.59983 81.9504 6.67532L81.3797 6.21261L81.3975 6.94171C81.409 7.4109 81.4253 7.86453 81.3995 8.26699C81.262 8.06624 81.0722 7.84379 80.8169 7.56816C81.0887 8.22377 81.1683 8.82861 81.0735 9.42438C80.8759 9.70898 80.5561 9.91325 79.9807 10.0366C79.3788 10.1658 78.5899 9.97749 77.68 9.60834C76.7701 9.23921 75.7498 8.70403 74.6692 8.22378C72.5078 7.26337 70.037 6.51159 67.7139 7.88943C66.3688 8.68717 65.2387 9.84526 64.4595 11.0937L64.4596 11.0937ZM65.0379 11.4552C65.7624 10.297 66.8253 9.20711 68.0659 8.47126C70.1184 7.25393 72.2899 7.9046 74.3971 8.84089C75.4507 9.30907 76.4711 9.84581 77.4287 10.2343C77.7045 10.3462 77.9758 10.4464 78.2426 10.529C77.9405 11.0226 77.4394 11.2335 76.6264 11.3687C77.7521 11.7369 78.04 11.7115 78.9226 11.6516C78.1027 12.3883 76.6112 12.8964 75.2667 12.9621C76.4937 13.8617 77.9718 13.738 78.6266 13.5669C77.6744 14.0883 76.0947 14.6791 74.1057 14.5064C75.4215 15.3613 77.1689 15.8677 78.5771 15.6559C77.5271 16.528 74.0934 15.7536 72.7837 15.8469C73.5986 16.9224 75.5982 17.7097 77.2951 17.9177C76.1731 18.0904 75.0963 17.9227 74.1072 17.5631C72.0964 16.832 70.4706 15.2469 69.8163 14.1147C69.0446 12.7794 67.7172 12.342 66.6133 12.6199C65.5093 12.8978 64.6077 13.8864 64.6449 15.216C64.6557 15.5993 64.516 15.6949 64.4235 15.7232C64.331 15.7516 64.2455 15.735 64.1891 15.5946C63.8118 14.6536 64.035 13.2938 64.7487 11.9547C64.8378 11.7873 64.9344 11.6205 65.0379 11.455L65.0379 11.4552Z" fill="#3D3D3D"/>
</svg>
