<svg width="132" height="43" viewBox="0 0 132 43" fill="none" xmlns="http://www.w3.org/2000/svg">
<path d="M128.173 21.4148C127.01 21.4148 126.07 21.1015 125.354 20.475C124.66 19.8261 124.313 19.0205 124.313 18.0584C124.313 17.0738 124.66 16.2571 125.354 15.6081C126.07 14.9592 127.01 14.6348 128.173 14.6348C129.315 14.6348 130.232 14.9592 130.926 15.6081C131.642 16.2571 132 17.0738 132 18.0584C132 19.0205 131.642 19.8261 130.926 20.475C130.232 21.1015 129.315 21.4148 128.173 21.4148ZM131.429 23.1602V41.9899H124.851V23.1602H131.429Z" fill="white"/>
<path d="M116.418 26.4839C117.156 25.4098 118.051 24.5595 119.103 23.933C120.154 23.3064 121.284 22.9932 122.493 22.9932V30.0082H120.647C119.215 30.0082 118.152 30.2879 117.458 30.8473C116.764 31.4067 116.418 32.3801 116.418 33.7674V41.9907H109.839V23.161H116.418V26.4839Z" fill="white"/>
<path d="M85.9512 32.5578C85.9512 30.6111 86.298 28.9105 86.9917 27.456C87.7077 26.0016 88.6699 24.8827 89.8782 24.0996C91.1089 23.3164 92.4739 22.9248 93.9731 22.9248C95.2709 22.9248 96.3898 23.1821 97.3296 23.6968C98.2694 24.2114 98.9966 24.9051 99.5113 25.7778V23.1598H106.09V41.9895H99.5113V39.3714C98.9966 40.2441 98.2582 40.9378 97.296 41.4524C96.3562 41.9671 95.2486 42.2244 93.9731 42.2244C92.4739 42.2244 91.1089 41.8328 89.8782 41.0497C88.6699 40.2665 87.7077 39.1477 86.9917 37.6932C86.298 36.2164 85.9512 34.5046 85.9512 32.5578ZM99.5113 32.5578C99.5113 31.3495 99.1756 30.3985 98.5043 29.7048C97.8554 29.0112 97.0499 28.6643 96.0877 28.6643C95.1031 28.6643 94.2864 29.0112 93.6375 29.7048C92.9885 30.3761 92.6641 31.3271 92.6641 32.5578C92.6641 33.7662 92.9885 34.7283 93.6375 35.4444C94.2864 36.1381 95.1031 36.4849 96.0877 36.4849C97.0499 36.4849 97.8554 36.1381 98.5043 35.4444C99.1756 34.7507 99.5113 33.7885 99.5113 32.5578Z" fill="white"/>
<path d="M73.6832 36.3849V41.9902H70.8302C66.0193 41.9902 63.6138 39.6071 63.6138 34.841V28.6315H61.2979V23.1605H63.6138V18.5957H70.226V23.1605H73.6496V28.6315H70.226V34.9416C70.226 35.4563 70.3379 35.8255 70.5617 36.0493C70.8078 36.273 71.2106 36.3849 71.77 36.3849H73.6832Z" fill="white"/>
<path d="M51.5178 42.2244C49.8172 42.2244 48.2956 41.9447 46.953 41.3853C45.6328 40.8035 44.5811 40.0204 43.7979 39.0358C43.0371 38.0289 42.612 36.8988 42.5225 35.6458H48.8997C48.9892 36.2499 49.2689 36.7198 49.7388 37.0555C50.2087 37.3911 50.7905 37.559 51.4842 37.559C52.0212 37.559 52.4464 37.4471 52.7597 37.2233C53.0729 36.9995 53.2296 36.7086 53.2296 36.3506C53.2296 35.8807 52.9722 35.5339 52.4576 35.3101C51.9429 35.0864 51.0926 34.8402 49.9067 34.5717C48.5641 34.3032 47.4453 34.0011 46.5502 33.6655C45.6552 33.3298 44.872 32.7816 44.2007 32.0208C43.5518 31.26 43.2273 30.2307 43.2273 28.9329C43.2273 27.814 43.5294 26.8071 44.1336 25.912C44.7377 24.9946 45.6216 24.2674 46.7852 23.7304C47.9711 23.1933 49.392 22.9248 51.0479 22.9248C53.5093 22.9248 55.4448 23.529 56.8545 24.7373C58.2642 25.9456 59.081 27.5343 59.3047 29.5035H53.3638C53.2519 28.8993 52.9834 28.4406 52.5583 28.1273C52.1555 27.7917 51.6073 27.6238 50.9136 27.6238C50.3766 27.6238 49.9626 27.7245 49.6717 27.9259C49.4032 28.1273 49.2689 28.407 49.2689 28.765C49.2689 29.2126 49.5263 29.5594 50.0409 29.8055C50.5556 30.0293 51.3835 30.2643 52.5247 30.5104C53.8897 30.8013 55.0197 31.1257 55.9147 31.4838C56.8322 31.8418 57.6265 32.4236 58.2978 33.2291C58.9915 34.0123 59.3383 35.0864 59.3383 36.4513C59.3383 37.5478 59.0138 38.5323 58.3649 39.405C57.7384 40.2777 56.8321 40.9713 55.6462 41.486C54.4826 41.9783 53.1065 42.2244 51.5178 42.2244Z" fill="white"/>
<path d="M40.8039 32.3564C40.8039 32.8711 40.7704 33.3858 40.7032 33.9004H28.2508C28.3179 34.9297 28.5976 35.7017 29.0899 36.2164C29.6046 36.7087 30.2535 36.9548 31.0366 36.9548C32.1331 36.9548 32.9163 36.4625 33.3862 35.4779H40.4012C40.1103 36.7758 39.5397 37.9394 38.6894 38.9687C37.8614 39.9756 36.8097 40.77 35.5343 41.3517C34.2588 41.9335 32.8491 42.2244 31.3052 42.2244C29.4479 42.2244 27.7921 41.8328 26.3376 41.0497C24.9055 40.2665 23.7755 39.1477 22.9476 37.6932C22.142 36.2387 21.7393 34.527 21.7393 32.5578C21.7393 30.5887 22.142 28.8881 22.9476 27.456C23.7531 26.0016 24.872 24.8827 26.304 24.0996C27.7585 23.3164 29.4255 22.9248 31.3052 22.9248C33.1624 22.9248 34.8071 23.3052 36.2391 24.066C37.6712 24.8268 38.7901 25.9232 39.5956 27.3553C40.4012 28.765 40.8039 30.4321 40.8039 32.3564ZM34.091 30.7118C34.091 29.9062 33.8225 29.2797 33.2855 28.8322C32.7484 28.3623 32.0771 28.1273 31.2716 28.1273C30.466 28.1273 29.8059 28.3511 29.2913 28.7986C28.7766 29.2238 28.441 29.8615 28.2843 30.7118H34.091Z" fill="white"/>
<path d="M6.57865 25.7794C7.09331 24.8844 7.82054 24.1907 8.76035 23.6984C9.70016 23.1838 10.8078 22.9264 12.0832 22.9264C13.5825 22.9264 14.9362 23.318 16.1446 24.1012C17.3753 24.8844 18.3374 26.0032 19.0311 27.4576C19.7472 28.9121 20.1052 30.6127 20.1052 32.5595C20.1052 34.5062 19.7472 36.218 19.0311 37.6948C18.3374 39.1493 17.3753 40.2681 16.1446 41.0513C14.9362 41.8345 13.5825 42.226 12.0832 42.226C10.8078 42.226 9.70016 41.9799 8.76035 41.4876C7.82054 40.973 7.09331 40.2681 6.57865 39.3731V41.9911H0V17.1533H6.57865V25.7794ZM13.4258 32.5595C13.4258 31.3288 13.0902 30.3778 12.4189 29.7065C11.77 29.0128 10.9644 28.666 10.0022 28.666C9.04006 28.666 8.22332 29.0128 7.55203 29.7065C6.90311 30.4001 6.57865 31.3511 6.57865 32.5595C6.57865 33.7902 6.90311 34.7523 7.55203 35.446C8.22332 36.1397 9.04006 36.4865 10.0022 36.4865C10.9644 36.4865 11.77 36.1397 12.4189 35.446C13.0902 34.73 13.4258 33.7678 13.4258 32.5595Z" fill="white"/>
<rect x="76.9238" y="23.0195" width="7.29664" height="18.9713" fill="white"/>
<path d="M64.4596 11.5654C64.3483 11.7437 64.2442 11.9239 64.1476 12.1051C63.3748 13.5551 63.0673 15.0875 63.5582 16.3119C63.7341 16.7504 64.2176 16.9679 64.6293 16.8416C65.0411 16.7152 65.3408 16.2676 65.3243 15.6753C65.2956 14.6527 65.9572 13.9561 66.7858 13.7475C67.6145 13.5388 68.5887 13.8133 69.2279 14.9195C69.9845 16.2288 71.6857 17.8723 73.8793 18.67C76.073 19.4676 78.7814 19.3579 81.3244 17.1065C82.3056 16.2378 83.4129 14.9244 83.9612 13.378C84.5521 11.7836 84.7232 9.63007 84.026 8.7149C84.1307 9.1864 84.1323 9.63567 84.0708 10.0713C83.7558 9.07197 83.0906 8.07151 81.9504 7.147L81.3797 6.68429L81.3975 7.41339C81.409 7.88258 81.4253 8.33621 81.3995 8.73867C81.262 8.53792 81.0722 8.31547 80.8169 8.03984C81.0887 8.69545 81.1683 9.30029 81.0735 9.89606C80.8759 10.1807 80.5561 10.3849 79.9807 10.5083C79.3788 10.6374 78.5899 10.4492 77.68 10.08C76.7701 9.71089 75.7498 9.17571 74.6692 8.69546C72.5078 7.73505 70.037 6.98327 67.7139 8.36111C66.3688 9.15885 65.2387 10.3169 64.4595 11.5654L64.4596 11.5654ZM65.0379 11.9269C65.7624 10.7687 66.8253 9.67879 68.0659 8.94294C70.1184 7.72561 72.2899 8.37628 74.3971 9.31257C75.4507 9.78075 76.4711 10.3175 77.4287 10.7059C77.7045 10.8179 77.9758 10.9181 78.2426 11.0007C77.9405 11.4943 77.4394 11.7052 76.6264 11.8404C77.7521 12.2085 78.04 12.1832 78.9226 12.1232C78.1027 12.86 76.6112 13.368 75.2667 13.4338C76.4937 14.3333 77.9718 14.2097 78.6266 14.0386C77.6744 14.5599 76.0947 15.1508 74.1057 14.9781C75.4215 15.833 77.1689 16.3394 78.5771 16.1276C77.5271 16.9997 74.0934 16.2253 72.7837 16.3186C73.5986 17.3941 75.5982 18.1814 77.2951 18.3894C76.1731 18.5621 75.0963 18.3944 74.1072 18.0348C72.0964 17.3036 70.4706 15.7186 69.8163 14.5864C69.0446 13.2511 67.7172 12.8136 66.6133 13.0915C65.5093 13.3695 64.6077 14.358 64.6449 15.6877C64.6557 16.071 64.516 16.1666 64.4235 16.1949C64.331 16.2233 64.2455 16.2067 64.1891 16.0662C63.8118 15.1253 64.035 13.7655 64.7487 12.4263C64.8378 12.259 64.9344 12.0922 65.0379 11.9267L65.0379 11.9269Z" fill="white"/>
</svg>
