<svg viewBox="0 0 191 70" fill="none" xmlns="http://www.w3.org/2000/svg">
<path d="M8.52743 60.18C7.03276 60.18 5.69543 59.6687 4.51543 58.646C3.33543 57.5447 2.74543 56.286 2.74543 54.87C2.74543 53.7687 3.0601 52.7853 3.68943 51.92L15.2534 37.406C15.8041 36.7767 16.0794 35.99 16.0794 35.046C16.0794 34.1807 15.7648 33.3153 15.1354 32.45L4.16143 18.998C3.61076 18.1327 3.33543 17.1493 3.33543 16.048C3.33543 14.632 3.8861 13.3733 4.98743 12.272C6.08876 11.1707 7.38676 10.62 8.88143 10.62C10.4548 10.62 11.6741 11.2493 12.5394 12.508L21.5074 25.016C22.1368 25.724 22.6874 26.078 23.1594 26.078C23.7888 26.078 24.3394 25.724 24.8114 25.016L33.6614 12.508C34.5268 11.2493 35.7461 10.62 37.3194 10.62C38.8141 10.62 40.1121 11.1707 41.2134 12.272C42.3148 13.3733 42.8654 14.632 42.8654 16.048C42.8654 17.1493 42.5901 18.1327 42.0394 18.998L31.0654 32.45C30.4361 33.3153 30.1214 34.1807 30.1214 35.046C30.1214 35.99 30.3968 36.7767 30.9474 37.406L42.5114 51.92C43.1408 52.7853 43.4554 53.7687 43.4554 54.87C43.4554 56.286 42.8654 57.5447 41.6854 58.646C40.5841 59.6687 39.2468 60.18 37.6734 60.18C36.1001 60.18 34.8808 59.5507 34.0154 58.292L24.8114 45.312C24.2608 44.604 23.7101 44.25 23.1594 44.25C22.5301 44.25 21.9794 44.604 21.5074 45.312L12.1854 58.292C11.3201 59.5507 10.1008 60.18 8.52743 60.18ZM84.7831 60.18C83.3671 60.18 82.1084 59.708 81.0071 58.764C79.9844 57.7413 79.4731 56.5613 79.4731 55.224V18.88C79.4731 16.5987 80.1811 14.75 81.5971 13.334C83.0131 11.918 84.8618 11.21 87.1431 11.21H99.0611C103.781 11.21 107.675 12.5473 110.743 15.222C113.89 17.8967 115.463 21.4367 115.463 25.842C115.463 30.6407 113.929 34.5347 110.861 37.524C107.793 40.5133 103.899 42.008 99.1791 42.008H92.2171C90.6438 42.008 89.8571 42.7947 89.8571 44.368L90.0931 55.224C90.0931 56.5613 89.5424 57.7413 88.4411 58.764C87.4184 59.708 86.1991 60.18 84.7831 60.18ZM91.6271 32.568H97.8811C102.758 32.568 105.197 30.562 105.197 26.55C105.197 22.6167 102.916 20.65 98.3531 20.65H91.6271C90.4471 20.65 89.8571 21.24 89.8571 22.42V30.798C89.8571 31.978 90.4471 32.568 91.6271 32.568ZM169.153 60.18C165.534 60.18 162.152 59.59 159.005 58.41C155.858 57.1513 153.38 55.4993 151.571 53.454C150.706 52.51 150.273 51.4087 150.273 50.15C150.273 48.8127 150.784 47.6327 151.807 46.61C152.83 45.5873 154.049 45.076 155.465 45.076C156.802 45.076 157.943 45.548 158.887 46.492C160.224 47.7507 161.916 48.734 163.961 49.442C166.006 50.15 168.012 50.504 169.979 50.504C172.024 50.504 173.794 50.0713 175.289 49.206C176.784 48.262 177.531 46.8067 177.531 44.84C177.531 43.188 176.823 41.9293 175.407 41.064C174.07 40.12 171.788 39.3727 168.563 38.822C162.82 37.878 158.494 36.3047 155.583 34.102C152.672 31.8207 151.217 28.6347 151.217 24.544C151.217 20.1387 152.908 16.638 156.291 14.042C159.674 11.3673 164.118 10.03 169.625 10.03C175.289 10.03 179.812 11.4853 183.195 14.396C184.532 15.4973 185.201 16.7953 185.201 18.29C185.201 19.5487 184.69 20.65 183.667 21.594C182.723 22.4593 181.582 22.892 180.245 22.892C179.222 22.892 178.278 22.6167 177.413 22.066C174.424 20.178 171.277 19.234 167.973 19.234C166.006 19.234 164.354 19.6273 163.017 20.414C161.68 21.2007 161.011 22.3807 161.011 23.954C161.011 25.606 162.034 26.904 164.079 27.848C166.203 28.792 169.271 29.6573 173.283 30.444C175.486 30.8373 177.649 31.5453 179.773 32.568C181.976 33.512 183.785 34.9673 185.201 36.934C186.696 38.9007 187.443 41.5753 187.443 44.958C187.443 49.442 185.712 53.1 182.251 55.932C178.868 58.764 174.502 60.18 169.153 60.18Z" fill="#3D3D3D"/>
</svg>
